# xmcd
#
# Track frame offsets:
#	150
#	14295
#	29540
#	44657
#	59118
#	76080
#	89012
#	100695
#	118443
#	133180
#	148502
#	163323
#	181540
#
# Disc length: 2655 seconds
#
# Revision: 0
# Processed by: cddbd v1.5.2PL0 Copyright (c) Steve Scherf et al.
# Submitted via: VUPlayer 2.41
#
DISCID=ba0a5d0d
DTITLE=The Steve James Band - The Upside of Down
DYEAR=2005
DGENRE=Country
TTITLE0=A GOOD DAY TO RUN
TTITLE1=BEER FOR MY HORSES
TTITLE2=THREE WOODEN CROSSES
TTITLE3=5 O'CLOCK SOMEWHERE
TTITLE4=WE DANCED
TTITLE5=CALLING CAROLINE
TTITLE6=THE UPSIDE OF DOWN
TTITLE7=I LOVE THIS BAR
TTITLE8=THAT WAS US
TTITLE9=SOME BEACH
TTITLE10=TENNESSEE RIVER RUN
TTITLE11=THE LORD LOVES A DRINKING MAN
TTITLE12=THE GLEN MILLER MEDLEY
EXTD=
EXTT0=
EXTT1=
EXTT2=
EXTT3=
EXTT4=
EXTT5=
EXTT6=
EXTT7=
EXTT8=
EXTT9=
EXTT10=
EXTT11=
EXTT12=
PLAYORDER=
